# xmcd CD database file
#
# Track frame offsets:
#	150
#	11007
#	34405
#	44660
#	65452
#	81542
#	96570
#	113202
#	125345
#	144412
#	160357
#	178167
#
# Disc length: 2535 seconds
#
# Revision: 0
# Processed by: cddbd v1.4PL0 Copyright (c) Steve Scherf et al.
# Submitted via: CDex 1.50beta10
#
DISCID=b209e50c
DTITLE=Cyndra Fyore - Phoenix Rising
DYEAR=1997
DGENRE=Jazz
TTITLE0=Flip Flop
TTITLE1=Harbor Lights
TTITLE2=Phoenix Rising
TTITLE3=You Thrill Me
TTITLE4=Treat Me Right
TTITLE5=Pretty Lover Boy
TTITLE6=Summertime
TTITLE7=September in the Rain
TTITLE8=I Never Knew
TTITLE9=Alibi
TTITLE10=Aint No Such Thing
TTITLE11=All of Me
EXTD=YEAR: 1997
EXTT0=
EXTT1=
EXTT2=
EXTT3=
EXTT4=
EXTT5=
EXTT6=
EXTT7=
EXTT8=
EXTT9=
EXTT10=
EXTT11=
PLAYORDER=
